<svg width="192" height="192" viewBox="0 0 192 192" fill="none" xmlns="http://www.w3.org/2000/svg">
<g id="Layer_1">
<g id="shadow">
<path id="Vector" d="M15.4752 136.666C15.8976 138.087 16.7808 139.7 18.24 139.7C19.6224 139.7 20.5824 138.317 20.9664 136.973C21.888 133.94 21.3888 130.637 20.16 127.719C18.9312 124.8 17.1264 122.189 15.2832 119.616C14.8224 118.964 14.208 118.272 13.44 118.349C12.7488 118.426 12.2496 119.156 12.2112 119.885C12.2112 120.615 12.4032 121.306 12.7488 121.959C13.824 124.416 14.6688 126.106 14.6304 128.756C14.592 131.405 14.592 134.132 15.4752 136.666Z" fill="white"/>
<path id="Vector_2" d="M146.88 30.029C146.611 30.029 146.304 29.9906 146.035 29.9138C142.579 28.9538 139.123 27.8402 135.744 26.6114C131.059 24.8834 126.451 22.8866 121.997 20.6594C118.349 18.8162 115.354 18.0098 111.629 16.973L110.477 16.6658C99.9552 13.7474 89.664 12.365 79.7952 12.557H79.7184C78.2976 12.5954 76.8384 12.5954 75.6096 11.7506C74.7648 11.213 74.304 10.2146 74.4192 9.21618C74.7264 7.37298 77.0688 6.95058 77.7984 6.79698C88.32 4.72339 100.032 5.49139 112.589 9.10098C123.264 12.173 133.21 16.781 144.845 22.7714C146.112 23.3858 147.302 24.1154 148.454 24.9218C149.606 25.6898 149.99 27.1874 149.376 28.4546C148.954 29.3378 147.955 29.9906 146.88 30.029ZM146.189 29.3762C147.264 29.6834 148.454 29.1458 148.915 28.109C149.414 27.1106 149.107 25.9202 148.186 25.3058C147.034 24.5378 145.843 23.8466 144.614 23.2322C132.979 17.2802 123.072 12.6722 112.435 9.63858C99.9936 6.06738 88.3968 5.29938 77.9136 7.33458C76.0704 7.68018 75.1488 8.33298 74.9568 9.29298C74.8416 10.0994 75.2256 10.8674 75.9168 11.2898C76.992 12.0578 78.3744 12.0194 79.68 11.981H79.7568C89.664 11.789 100.032 13.1714 110.592 16.1282L111.744 16.4354C115.546 17.4722 118.541 18.317 122.227 20.1602C126.682 22.3874 131.251 24.3842 135.936 26.0738C139.315 27.3026 142.771 28.4162 146.189 29.3762Z" fill="white"/>
<path id="Vector_3" d="M55.68 19.3156C53.568 19.3156 53.0304 18.2788 52.8768 17.626C52.5312 16.0516 53.952 13.8628 55.872 12.9796C59.904 11.1748 64.32 10.33 68.7744 10.4836C69.6192 10.522 70.6176 10.6372 71.1936 11.3284C72.0384 12.2884 71.6544 13.786 70.8096 14.6308C69.9648 15.4756 68.736 15.7444 67.776 16.0132L65.3568 16.6276C63.7824 17.0116 62.1312 17.434 60.5568 17.8564C59.9808 18.01 59.4432 18.202 58.9056 18.4324C57.8304 18.8548 56.7168 19.2772 55.7184 19.3156H55.68ZM67.6608 11.0596C63.7056 11.0596 59.7504 11.9044 56.1408 13.5172C54.4896 14.2468 53.184 16.2052 53.4528 17.5108C53.6832 18.5476 54.7968 18.7396 55.7184 18.7396C56.64 18.7396 57.6768 18.3172 58.7136 17.8948C59.2512 17.6644 59.8272 17.4724 60.4032 17.3188C62.016 16.8964 63.6288 16.474 65.2032 16.09C66.0096 15.898 66.816 15.706 67.6224 15.4756C68.5824 15.2452 69.6576 14.938 70.4256 14.2468C71.0784 13.6324 71.3856 12.442 70.8096 11.7508C70.3488 11.2516 69.5808 11.1364 68.7744 11.098C68.3904 11.0596 68.0064 11.0596 67.6608 11.0596Z" fill="white"/>
</g>
<g id="paper">
<path id="Vector_4" d="M54.8352 172.877C51.8016 172.877 49.1904 170.803 48.4608 167.885C44.4672 151.718 40.6656 135.091 37.0944 118.502C33.5616 102.029 30.1824 85.1327 27.1104 68.2751C26.688 65.9711 26.112 63.5903 25.536 61.0559C24.1536 55.1423 22.6944 48.9983 22.9248 43.4303C23.1552 37.5167 27.6864 35.8655 31.9488 34.7903C53.5296 29.2991 75.3408 25.4207 96.384 21.6575C104.947 20.1215 113.818 18.5471 122.381 16.8959C124.954 16.3967 127.488 18.1631 128.141 20.8895L156.595 139.046C157.094 141.158 157.555 143.539 156.403 145.459C155.52 146.88 154.022 147.609 152.448 148.262C121.958 161.126 89.3568 169.382 55.5648 172.838C55.296 172.877 55.0656 172.877 54.8352 172.877ZM49.0368 167.731C49.728 170.649 52.4928 172.608 55.488 172.262C88.7808 168.96 121.344 160.665 152.179 147.763C153.677 147.149 155.098 146.457 155.866 145.19C156.902 143.462 156.48 141.197 156.019 139.238L127.565 21.0431C126.989 18.6239 124.762 17.0495 122.496 17.4719C113.933 19.1231 105.062 20.6975 96.4992 22.1951C75.4176 25.9583 53.6448 29.8367 32.1024 35.3279C26.9568 36.6335 23.7312 38.4383 23.5392 43.4303C23.3088 48.8831 24.768 54.9887 26.1504 60.9023C26.7648 63.4367 27.3024 65.8559 27.7248 68.1599C30.8352 85.0175 34.176 101.913 37.7088 118.387C41.2032 134.937 45.0432 151.565 49.0368 167.731Z" fill="white"/>
<path id="Vector_5" d="M35.4816 59.3662C35.6736 60.3646 35.9808 61.4782 36.864 61.939C37.824 62.4382 38.9376 61.939 39.8976 61.4782C48.768 57.139 58.5216 55.3726 68.0064 53.6446L94.9248 48.7678C96.4992 48.4606 98.304 48.0766 99.1872 46.6558C100.07 45.235 99.8016 43.4302 99.5328 41.779L98.1504 33.9454C98.0352 33.3694 97.92 32.7166 97.4592 32.371C96.9984 32.0254 96.3456 32.0638 95.7696 32.179L67.0464 36.9406C60.9408 37.939 54.7968 38.9758 48.7296 40.5886C45.6576 41.395 42.6624 42.355 39.7056 43.507C37.5936 44.3518 34.56 44.8894 34.2912 47.539C33.8688 51.3406 34.7136 55.6798 35.4816 59.3662Z" fill="white"/>
<path id="Vector_6" d="M39.8976 72.5377C39.2448 72.9601 38.5152 73.6129 38.592 74.4193C38.7456 75.0721 39.2832 75.5713 39.936 75.6097C40.5888 75.6481 41.2416 75.5329 41.8176 75.2641C53.76 71.3473 66.0096 68.3521 78.4512 66.3937C81.6768 65.8945 85.0176 65.3953 87.6288 63.3601C88.128 62.9761 88.6656 62.4001 88.6272 61.7089C88.5504 61.0561 88.0512 60.5185 87.3984 60.4033C86.784 60.3265 86.1312 60.3649 85.5552 60.5569L66.7008 65.1265C60.5184 66.6241 54.144 68.7361 47.808 69.6577C44.9664 70.0033 42.2784 70.9633 39.8976 72.5377Z" fill="white"/>
<path id="Vector_7" d="M46.9248 100.185C46.272 100.608 45.5424 101.261 45.6576 102.067C45.8112 102.72 46.3488 103.181 47.0016 103.219C47.6544 103.257 48.2688 103.142 48.8448 102.873C60.6336 98.8413 72.7296 95.731 85.0176 93.619C88.2048 93.0814 91.5072 92.5438 94.08 90.5086C94.5792 90.0862 95.1168 89.5486 95.0784 88.8958C95.0016 88.243 94.5024 87.7438 93.888 87.6286C93.2736 87.5518 92.6592 87.6286 92.0448 87.8206L73.3824 92.5438C67.2768 94.1182 60.9792 96.307 54.72 97.267C51.9168 97.651 49.2672 98.6493 46.9248 100.185Z" fill="white"/>
<path id="Vector_8" d="M51.1873 117.197C50.5345 117.619 49.8049 118.272 49.9201 119.078C50.0353 119.731 50.6112 120.192 51.2256 120.23C51.8784 120.23 52.4928 120.115 53.0688 119.885C64.7808 115.776 76.7617 112.589 88.9729 110.4C92.1217 109.824 95.4241 109.248 97.9585 107.213C98.4577 106.79 98.9569 106.253 98.9185 105.6C98.8417 104.986 98.3424 104.448 97.7281 104.371C97.1137 104.294 96.4993 104.371 95.9233 104.563L77.4145 109.44C71.3473 111.053 65.1264 113.28 58.9056 114.278C56.1408 114.624 53.5297 115.661 51.1873 117.197Z" fill="#D8DB2F"/>
<path id="Vector_9" d="M49.4592 109.171C48.8832 109.593 48.5376 110.246 48.4992 110.937C48.4608 111.475 48.8064 111.974 49.3056 112.166C49.728 112.243 50.1888 112.128 50.5344 111.936C58.4064 108.672 66.624 106.329 75.0336 104.947C77.184 104.601 79.4112 104.256 81.2544 102.374C81.7152 101.952 81.984 101.414 82.0224 100.8C82.0608 100.262 81.792 99.7245 81.2928 99.4557C80.8704 99.3405 80.448 99.3789 80.064 99.5325L67.392 103.142C63.2448 104.332 58.9824 106.137 54.7584 106.713C52.8 107.02 50.9568 107.865 49.4592 109.171Z" fill="#D8DB2F"/>
<path id="Vector_10" d="M54.336 153.331C53.9905 153.369 53.6832 153.1 53.6448 152.755C53.568 152.371 53.8368 151.987 54.2208 151.91C59.136 150.835 64.0129 149.529 68.7745 147.955C69.1201 147.84 69.504 148.032 69.6192 148.377V148.416C69.7344 148.8 69.5041 149.184 69.1585 149.299C64.3201 150.912 59.4433 152.256 54.4513 153.292C54.4129 153.331 54.3744 153.331 54.336 153.331Z" fill="white"/>
<path id="Vector_11" d="M55.4112 158.553C55.104 158.592 54.8352 158.4 54.72 158.093C54.6048 157.709 54.7968 157.325 55.1424 157.171C58.9824 155.673 62.976 154.483 67.008 153.6C67.3536 153.523 67.6992 153.753 67.776 154.099V154.137C67.8144 154.521 67.584 154.867 67.2 154.982C63.2448 155.827 59.328 157.017 55.5648 158.477C55.5648 158.515 55.488 158.553 55.4112 158.553Z" fill="white"/>
<path id="Vector_12" d="M79.872 156.211C78.2592 156.288 76.6848 155.635 75.6096 154.406C75.3792 154.099 75.3792 153.677 75.6864 153.408C75.9552 153.139 76.3776 153.139 76.608 153.369C76.608 153.369 76.608 153.369 76.6464 153.408C77.4912 154.406 78.7968 154.905 80.1024 154.752C81.408 154.56 82.4832 153.677 82.9056 152.448C83.2896 151.257 82.752 149.837 81.7152 149.376C81.024 149.069 80.1408 149.107 79.2576 149.184C78.1056 149.261 76.9152 149.337 75.8784 148.685C74.5344 147.84 73.9584 145.92 74.5344 144.23C75.1488 142.694 76.4928 141.542 78.1056 141.235C79.6032 140.966 81.1008 141.312 82.368 142.195C82.6752 142.425 82.752 142.848 82.5216 143.155C82.3296 143.462 81.9072 143.577 81.6 143.385C80.64 142.694 79.488 142.425 78.336 142.617C77.2224 142.848 76.2624 143.616 75.84 144.653C75.456 145.689 75.8016 146.918 76.608 147.417C77.2992 147.84 78.2208 147.801 79.2192 147.725C80.2176 147.648 81.3312 147.571 82.2912 148.032C83.904 148.761 84.7488 150.912 84.1728 152.755C83.5584 154.521 82.0224 155.827 80.1792 156.096C80.064 156.211 79.9488 156.211 79.872 156.211Z" fill="#D8DB2F"/>
<path id="Vector_13" d="M81.9072 157.632C81.6 157.67 81.2928 157.44 81.216 157.133L77.5296 139.853C77.4528 139.469 77.6832 139.085 78.0672 138.969C78.4128 138.893 78.7584 139.085 78.8736 139.43V139.469L82.56 156.749C82.6368 157.133 82.4064 157.517 82.0224 157.593L81.9072 157.632Z" fill="#D8DB2F"/>
<path id="Vector_14" d="M93.0048 152.217C91.392 152.294 89.856 151.641 88.7808 150.412C88.5504 150.105 88.5504 149.683 88.8576 149.414C89.088 149.145 89.5104 149.145 89.7792 149.376L89.8176 149.414C90.6624 150.412 91.9296 150.912 93.1968 150.758C94.464 150.566 95.5392 149.683 95.9616 148.454C96.3456 147.264 95.808 145.881 94.8096 145.382C94.1184 145.075 93.2736 145.113 92.3904 145.19C91.2384 145.267 90.0864 145.344 89.0496 144.691C87.7056 143.884 87.168 141.926 87.744 140.275C88.32 138.739 89.664 137.625 91.2768 137.318C92.736 137.049 94.272 137.395 95.4624 138.278C95.7696 138.508 95.8464 138.931 95.616 139.238C95.424 139.545 95.0016 139.66 94.6944 139.468C93.7728 138.777 92.6208 138.508 91.4688 138.7C90.3552 138.931 89.4336 139.699 89.0112 140.736C88.6272 141.772 88.9728 143.001 89.7792 143.5C90.4704 143.923 91.392 143.884 92.352 143.808C93.312 143.731 94.4256 143.692 95.3856 144.153C96.96 144.883 97.8048 146.995 97.2288 148.876C96.6528 150.643 95.1552 151.948 93.312 152.217H93.0048Z" fill="#D8DB2F"/>
<path id="Vector_15" d="M95.0401 153.638C94.7329 153.677 94.4257 153.446 94.3873 153.139L90.7777 135.936C90.7009 135.552 90.9313 135.168 91.3153 135.091C91.6609 135.014 92.0065 135.206 92.1217 135.552V135.59L95.7313 152.793C95.8081 153.177 95.5777 153.561 95.2321 153.638C95.1169 153.638 95.0785 153.638 95.0401 153.638Z" fill="#D8DB2F"/>
<path id="Vector_16" d="M104.794 149.376C103.181 149.453 101.645 148.8 100.608 147.609C100.378 147.302 100.378 146.88 100.685 146.611C100.915 146.342 101.338 146.342 101.606 146.573L101.645 146.611C102.451 147.571 103.718 148.109 104.986 147.955C106.253 147.763 107.328 146.88 107.712 145.689C108.096 144.499 107.558 143.117 106.598 142.656C105.907 142.349 105.101 142.387 104.179 142.464C103.066 142.541 101.914 142.617 100.877 141.965C99.5712 141.158 98.9952 139.2 99.6096 137.549C100.186 136.013 101.53 134.899 103.104 134.592C104.563 134.361 106.061 134.707 107.251 135.552C107.558 135.782 107.635 136.205 107.405 136.512C107.213 136.819 106.829 136.934 106.522 136.742C106.522 136.742 106.522 136.742 106.483 136.742C105.562 136.089 104.41 135.782 103.296 135.974C102.182 136.205 101.261 136.973 100.838 138.009C100.454 139.008 100.8 140.275 101.606 140.736C102.298 141.158 103.181 141.12 104.141 141.043C105.101 140.966 106.176 140.928 107.136 141.389C108.71 142.118 109.517 144.23 108.941 146.073C108.365 147.84 106.867 149.107 105.024 149.414H104.794V149.376Z" fill="#D8DB2F"/>
<path id="Vector_17" d="M106.79 150.797C106.483 150.835 106.176 150.605 106.138 150.298L102.643 133.171C102.566 132.787 102.797 132.442 103.142 132.326C103.488 132.25 103.834 132.442 103.91 132.787V132.826L107.405 149.952C107.482 150.336 107.251 150.682 106.906 150.797C106.867 150.797 106.829 150.797 106.79 150.797Z" fill="#D8DB2F"/>
<path id="Vector_18" d="M118.963 92.8513C118.656 92.8513 118.387 92.6593 118.31 92.3905C118.195 92.0065 118.387 91.6225 118.733 91.4689C121.882 90.3169 125.069 89.3953 128.333 88.6657C128.678 88.5889 129.024 88.8193 129.101 89.1649V89.2033C129.178 89.5873 128.947 89.9329 128.563 90.0481C125.376 90.7777 122.227 91.6993 119.117 92.8129C119.117 92.8129 119.04 92.8513 118.963 92.8513Z" fill="white"/>
<path id="Vector_19" d="M120.077 97.0753C119.808 97.0753 119.578 96.9217 119.462 96.6913C119.309 96.3457 119.424 95.9233 119.77 95.7313C121.075 95.0017 122.534 94.5409 124.032 94.3489C124.378 94.3105 124.685 94.5793 124.723 94.9249V94.9633C124.762 95.3473 124.493 95.6929 124.109 95.7313C122.803 95.8849 121.498 96.2689 120.346 96.9217C120.269 97.0369 120.192 97.0369 120.077 97.0753Z" fill="white"/>
<path id="Vector_20" d="M112.243 63.6288C111.936 63.6288 111.706 63.4368 111.59 63.168C111.475 62.8224 111.629 62.4 111.974 62.2464C115.738 60.672 119.693 59.4816 123.725 58.752C124.07 58.6752 124.416 58.944 124.493 59.2896V59.328C124.57 59.712 124.301 60.0576 123.955 60.1344C120 60.864 116.16 62.0544 112.474 63.5904C112.397 63.6288 112.32 63.6288 112.243 63.6288Z" fill="white"/>
<path id="Vector_21" d="M114.547 67.4305C114.24 67.4305 113.971 67.2385 113.894 66.9313C113.779 66.5473 113.971 66.1633 114.355 66.0097C116.045 65.4337 117.811 65.1265 119.578 65.1265C119.962 65.1265 120.23 65.4337 120.23 65.8177C120.23 66.2017 119.962 66.5089 119.578 66.5473C117.926 66.5473 116.314 66.8161 114.778 67.3537C114.662 67.3921 114.624 67.4305 114.547 67.4305Z" fill="white"/>
<path id="Vector_22" d="M48.0384 82.4445C56.7936 79.7949 65.5872 77.6829 74.2272 75.1101C75.1488 74.8413 76.1088 74.5341 76.8 73.8045L76.8384 73.7661C77.76 72.7677 76.8 71.1933 75.5328 71.5389L60.3648 75.9549C55.6416 77.3373 50.2272 79.9101 45.312 79.3725C44.1984 79.2573 43.392 79.7565 42.2784 80.1789C38.7456 81.5229 43.2 83.9421 48.0384 82.4445Z" fill="white"/>
</g>
<g id="calculator">
<path id="Vector_23" d="M134.477 94.1566C132.288 93.6574 129.984 93.1966 127.91 93.9262C124.762 95.0014 123.418 98.3806 122.419 101.414L106.79 149.069C106.368 150.374 105.946 151.757 106.33 153.101C107.021 155.289 109.555 156.441 111.821 157.286L146.074 170.457C148.877 171.533 152.026 172.608 154.752 171.571C157.786 170.419 158.976 167.117 159.859 164.16L174.336 115.776C174.912 113.817 175.526 111.705 174.95 109.709C173.376 104.025 162.624 102.221 157.632 100.569C150.029 98.0734 142.31 95.9614 134.477 94.1566Z" fill="#D8DB2F"/>
<path id="Vector_24" d="M162.778 124.032C161.856 123.993 160.973 123.801 160.09 123.532L127.411 113.932C126.566 113.702 125.414 113.356 124.762 112.473C123.878 111.36 124.109 109.862 124.378 108.556C124.915 106.06 125.568 102.912 127.603 100.761C129.331 98.918 131.866 98.3036 134.438 99.11C137.165 99.9548 139.93 100.569 142.848 101.184L143.27 101.26C150.221 102.758 157.094 104.716 163.814 107.097C165.581 107.712 167.27 108.403 168.346 109.785C170.227 112.243 169.344 115.622 168.192 118.579C167.27 120.998 166.003 123.571 163.469 123.993C163.238 124.032 163.008 124.032 162.778 124.032ZM128.064 101.145C126.144 103.18 125.491 106.214 124.992 108.672C124.762 109.862 124.531 111.206 125.261 112.128C125.76 112.78 126.643 113.088 127.642 113.356L160.32 122.956C161.28 123.264 162.432 123.571 163.469 123.379C165.696 122.995 166.886 120.614 167.731 118.348C168.806 115.507 169.651 112.32 167.962 110.092C167.002 108.825 165.389 108.172 163.699 107.596C157.018 105.216 150.182 103.296 143.232 101.798L142.81 101.721C139.891 101.107 137.126 100.492 134.362 99.6476C131.942 98.918 129.638 99.4556 128.064 101.145Z" fill="#133041"/>
<path id="Vector_25" d="M147.994 163.2C146.726 163.123 145.498 162.892 144.307 162.432L119.386 154.329C117.197 153.638 115.008 152.793 114.01 150.95C113.011 149.107 113.587 146.956 114.317 144.96L122.803 120.883C123.379 119.27 124.224 118.195 125.338 117.657C127.411 116.697 129.984 117.619 132.749 118.579C133.632 118.886 134.515 119.193 135.398 119.462L155.942 125.376C158.054 125.99 160.013 126.643 161.165 128.256C162.662 130.329 161.971 132.94 161.203 135.206L153.907 157.171C153.062 159.744 151.795 162.47 149.107 163.084C148.762 163.161 148.378 163.2 147.994 163.2ZM123.341 121.036L114.816 145.113C114.163 146.995 113.587 148.953 114.47 150.643C115.354 152.332 117.466 153.1 119.539 153.753L144.461 161.856C145.805 162.278 147.494 162.854 148.992 162.508C151.411 161.932 152.525 159.513 153.37 156.94L160.666 134.976C161.395 132.825 162.01 130.368 160.704 128.524C159.667 127.104 157.786 126.451 155.789 125.875L135.245 119.961C134.362 119.692 133.44 119.385 132.557 119.078C129.907 118.118 127.411 117.235 125.568 118.118C124.57 118.617 123.84 119.577 123.341 121.036Z" fill="#133041"/>
<path id="Vector_26" d="M151.296 134.784C151.258 134.784 151.258 134.784 151.219 134.784C142.579 130.675 133.517 127.603 124.147 125.568C124.032 125.529 123.955 125.453 123.994 125.337C124.032 125.222 124.109 125.145 124.224 125.184C133.594 127.219 142.694 130.291 151.373 134.4C151.45 134.438 151.526 134.553 151.45 134.669C151.45 134.707 151.373 134.784 151.296 134.784Z" fill="#133041"/>
<path id="Vector_27" d="M145.92 143.808C145.882 143.808 145.882 143.808 145.843 143.808C137.933 140.697 129.869 138.086 121.651 135.936C121.536 135.897 121.498 135.821 121.498 135.705C121.498 135.59 121.613 135.552 121.728 135.552C129.946 137.702 138.048 140.313 145.92 143.424C146.035 143.462 146.074 143.577 146.035 143.654C146.074 143.769 145.997 143.808 145.92 143.808Z" fill="#133041"/>
<path id="Vector_28" d="M143.424 152.793H143.386L119.539 145.881C119.424 145.843 119.386 145.728 119.424 145.651C119.462 145.536 119.578 145.497 119.654 145.536L143.501 152.448C143.616 152.486 143.654 152.601 143.616 152.678C143.578 152.717 143.501 152.793 143.424 152.793Z" fill="#133041"/>
<path id="Vector_29" d="M126.413 153.216H126.374C126.259 153.177 126.221 153.1 126.221 152.985C128.218 143.155 130.906 133.44 134.246 123.955C134.285 123.84 134.4 123.801 134.477 123.84C134.592 123.878 134.63 123.993 134.592 124.07C131.29 133.555 128.602 143.232 126.605 153.062C126.566 153.139 126.49 153.216 126.413 153.216Z" fill="#133041"/>
<path id="Vector_30" d="M135.206 156.365H135.168C135.053 156.326 135.014 156.211 135.053 156.134L144 126.873C144.038 126.758 144.154 126.72 144.23 126.72C144.307 126.72 144.384 126.873 144.384 126.95L135.398 156.211C135.398 156.288 135.322 156.365 135.206 156.365Z" fill="#133041"/>
<path id="Vector_31" d="M144.576 158.976H144.538C144.422 158.937 144.384 158.822 144.422 158.745L153.331 129.676C153.37 129.561 153.485 129.523 153.562 129.561C153.677 129.6 153.715 129.676 153.677 129.792L144.768 158.822C144.73 158.899 144.691 158.976 144.576 158.976Z" fill="#133041"/>
<path id="Vector_32" d="M156.288 138.662C156.25 138.662 156.25 138.662 156.211 138.662L151.68 137.011C151.565 136.972 151.526 136.857 151.565 136.78C151.603 136.665 151.718 136.627 151.795 136.665L156.326 138.316C156.442 138.316 156.518 138.432 156.48 138.547C156.48 138.624 156.365 138.7 156.288 138.662Z" fill="#133041"/>
<path id="Vector_33" d="M129.37 112.243H129.331C128.256 111.974 127.373 111.206 127.027 110.131C126.758 109.171 126.72 108.134 126.989 107.174C127.603 104.525 129.062 102.144 131.136 100.377C131.213 100.301 131.328 100.339 131.405 100.416C131.482 100.493 131.443 100.608 131.366 100.685C129.331 102.374 127.91 104.678 127.334 107.251C127.066 108.134 127.066 109.094 127.334 110.016C127.642 110.937 128.371 111.629 129.331 111.859C129.446 111.859 129.485 111.974 129.485 112.089C129.523 112.166 129.485 112.243 129.37 112.243Z" fill="#133041"/>
</g>
<g id="dollar-coin">
<path id="Vector_34" d="M8.21755 123.879C7.37275 128.179 9.21595 132.941 12.9024 135.322C16.8191 137.856 22.4255 137.28 25.7279 134.016C29.0303 130.752 29.7215 125.146 27.2639 121.191C24.0767 116.007 15.5136 114.471 10.9824 118.771C9.52315 120.154 8.56315 121.92 8.21755 123.879Z" fill="white"/>
<path id="Vector_35" d="M17.472 137.856C15.4752 137.856 13.4784 137.318 11.7888 136.243C8.06399 133.862 6.10559 129.024 6.98879 124.531C7.37279 122.534 8.37119 120.691 9.83039 119.27C11.9424 117.274 15.0528 116.39 18.3552 116.813C21.8496 117.274 24.9216 119.117 26.5728 121.766C29.1072 125.798 28.3776 131.597 24.9984 134.938C23.0016 136.819 20.2752 137.894 17.472 137.856ZM16.7808 117.235C14.3616 117.158 12.0576 118.042 10.2528 119.654C8.87039 120.998 7.94879 122.726 7.60319 124.608C6.75839 128.909 8.63999 133.478 12.1344 135.744C15.936 138.202 21.4272 137.626 24.6144 134.477C27.8016 131.328 28.4928 125.837 26.112 121.997C24.576 119.501 21.6576 117.734 18.3168 117.312C17.7792 117.274 17.28 117.235 16.7808 117.235Z" fill="white"/>
<path id="Vector_36" d="M17.5104 136.858C15.6672 136.858 13.9008 136.359 12.3264 135.399C8.94724 133.21 7.14244 128.794 7.94884 124.685C8.29444 122.842 9.21604 121.191 10.5216 119.885C12.4416 118.042 15.2832 117.235 18.3168 117.619C21.504 118.042 24.3072 119.731 25.8048 122.151C28.1088 125.837 27.456 131.136 24.3456 134.17C22.5408 135.898 20.0832 136.858 17.5104 136.858ZM8.52484 124.762C7.75684 128.64 9.44644 132.826 12.6336 134.899C16.0896 137.127 21.0432 136.627 23.9616 133.747C26.88 130.867 27.4944 125.914 25.3056 122.419C23.8848 120.154 21.2352 118.579 18.2016 118.157C15.36 117.773 12.7104 118.541 10.9056 120.269C9.71524 121.498 8.87044 123.072 8.52484 124.762Z" fill="white"/>
<path id="Vector_37" d="M19.7376 131.943C18.2784 132.557 16.6656 132.365 15.6288 131.443C15.36 131.136 15.3984 130.637 15.7056 130.368C15.9744 130.138 16.3584 130.099 16.6656 130.33C17.3184 130.944 18.432 130.867 19.2 130.522C19.776 130.291 20.2752 129.869 20.544 129.331C20.7744 128.871 20.6976 128.295 20.352 127.911C19.8528 127.411 18.8928 127.565 18.3552 127.68C18.1632 127.719 17.9328 127.795 17.7408 127.834C16.9344 128.103 16.0896 128.218 15.2448 128.141C13.3632 127.834 12.0576 126.067 12.3648 124.147C12.672 122.266 14.4384 120.96 16.3584 121.267C16.5504 121.306 16.704 121.344 16.8576 121.383C17.2416 121.575 17.3952 122.035 17.2416 122.419C17.088 122.727 16.7424 122.919 16.3968 122.842C15.36 122.573 14.2848 123.149 14.016 124.186C13.7472 125.223 14.3232 126.298 15.36 126.567C15.3984 126.567 15.4368 126.605 15.5136 126.605C16.1664 126.643 16.7808 126.567 17.3952 126.336C17.6256 126.259 17.856 126.221 18.0864 126.144C19.5456 125.799 20.736 126.029 21.504 126.797C22.272 127.642 22.464 128.871 22.0032 129.907C21.5808 130.829 20.7744 131.52 19.8528 131.904L19.7376 131.943Z" fill="#133041"/>
<path id="Vector_38" d="M22.0032 133.133C21.696 133.248 21.3504 133.171 21.12 132.903C18.0864 129.293 15.3216 125.453 12.864 121.421C12.5952 121.075 12.6336 120.615 12.9792 120.346C13.3248 120.077 13.7856 120.115 14.0544 120.461C14.0928 120.499 14.1312 120.576 14.1696 120.615C16.5888 124.57 19.3152 128.371 22.272 131.943C22.5408 132.25 22.5024 132.749 22.1952 133.018C22.1184 133.056 22.0416 133.095 22.0032 133.133Z" fill="#133041"/>
</g>
<g id="money">
<path id="Vector_39" d="M175.142 83.8655C174.029 83.8271 172.915 83.5967 171.84 83.2127C168.269 82.0223 164.698 80.6015 161.28 79.1807C158.707 78.1439 156.058 77.0687 153.37 76.1087C148.646 74.3807 141.504 72.1535 134.17 72.4223C133.21 72.4607 131.789 72.4991 131.059 71.5007C130.56 70.8479 130.598 69.9647 130.675 69.1583C131.174 63.3215 131.904 57.4463 132.826 51.6863C133.133 49.8047 133.555 47.8463 134.976 46.6175C136.166 45.6191 137.818 45.3887 139.162 45.2735C146.918 44.7359 154.522 47.6543 161.011 50.4191L163.085 51.3023C164.352 51.8399 165.658 52.4159 166.925 52.9151C170.342 54.4127 173.914 55.6031 177.523 56.4863C179.098 56.8703 180.71 57.1007 182.362 57.1391C184.282 57.1775 185.626 58.0223 186.048 59.3663C186.47 60.7103 186.048 61.9775 185.51 63.4367L180.019 79.1039C179.405 80.8319 178.752 82.4447 177.293 83.2511C176.602 83.6735 175.872 83.8655 175.142 83.8655ZM135.36 71.8079C142.349 71.8079 149.069 73.9199 153.6 75.5711C156.25 76.5311 158.938 77.6063 161.51 78.6431C164.928 80.0255 168.499 81.4847 172.07 82.6367C173.798 83.2127 175.565 83.6351 176.986 82.8287C178.291 82.0991 178.906 80.6015 179.482 78.9887L184.973 63.3215C185.434 61.9775 185.818 60.7487 185.472 59.5967C185.011 57.9839 182.938 57.7919 182.323 57.7535C180.672 57.7151 179.021 57.4847 177.37 57.0623C173.722 56.1407 170.112 54.9503 166.656 53.4527C165.35 52.9151 164.045 52.3775 162.816 51.8399L160.742 50.9567C154.291 48.2303 146.765 45.3119 139.162 45.8495C137.856 45.9263 136.397 46.1567 135.322 47.0399C134.054 48.1151 133.67 49.9583 133.363 51.7247C132.442 57.4847 131.75 63.3599 131.213 69.1583C131.136 69.9263 131.136 70.6175 131.52 71.1167C132.058 71.8079 133.056 71.8463 134.17 71.8079C134.554 71.8079 134.976 71.8079 135.36 71.8079Z" fill="white"/>
<path id="Vector_40" d="M169.382 80.1407L169.19 80.0639C160.435 75.8399 150.49 71.0399 140.083 70.6943H139.968L139.93 70.5791C138.662 68.1983 136.282 66.5855 133.594 66.3551L133.402 66.3167L135.629 52.1087H135.782C137.741 52.0703 139.546 50.9567 140.467 49.2287C140.659 48.9215 140.774 48.5375 140.813 48.1535C140.813 48.0767 140.813 47.9999 140.774 47.8847C140.698 47.6543 140.698 47.4239 140.813 47.1935C141.12 46.7711 142.08 46.9247 143.117 47.1167C143.309 47.1551 143.462 47.1935 143.539 47.1935C145.728 47.4239 147.878 47.8079 149.99 48.3071C154.138 49.2671 158.17 50.7263 162.01 52.6079C163.085 53.1455 164.198 53.7215 165.235 54.2975C166.925 55.2191 168.691 56.1791 170.496 56.9471C173.914 58.4063 176.909 59.0207 179.674 58.7135H179.866V58.9055C179.981 60.8639 181.171 62.5919 182.938 63.3983L183.091 63.4751L183.053 63.6287C181.478 68.3519 179.674 72.9599 177.562 77.4527L177.485 77.6447L177.293 77.5295C174.758 75.9167 171.456 76.6847 169.843 79.1807C169.69 79.4111 169.574 79.6415 169.459 79.9103L169.382 80.1407ZM140.198 70.2719C150.605 70.6559 160.474 75.3791 169.19 79.6031C170.534 76.7231 173.99 75.4943 176.87 76.8767C177.024 76.9535 177.178 77.0303 177.331 77.1071C179.366 72.7295 181.133 68.2367 182.669 63.6671C180.941 62.7839 179.75 61.0559 179.558 59.1359C176.794 59.3663 173.798 58.7519 170.381 57.2927C168.576 56.5247 166.81 55.5647 165.082 54.6431C164.045 54.0671 162.97 53.4911 161.856 52.9535C156.096 50.1119 149.914 48.2687 143.501 47.5391C143.386 47.5391 143.232 47.5007 143.04 47.4623C142.502 47.3855 141.312 47.1551 141.082 47.4239C141.082 47.5391 141.082 47.6927 141.12 47.8079C141.158 47.9231 141.158 48.0383 141.158 48.1535C141.12 48.5759 140.966 48.9983 140.774 49.3439C139.814 51.1487 137.971 52.3391 135.936 52.4543L133.824 65.9327C136.512 66.2783 138.893 67.8911 140.198 70.2719Z" fill="white"/>
<path id="Vector_41" d="M155.174 56.2942C152.256 57.7534 150.298 61.0174 150.566 64.2814C150.95 68.5054 154.675 71.6542 158.899 71.3086C161.856 71.0398 164.429 69.1198 165.466 66.3166C167.04 62.0542 164.045 56.2942 159.437 55.603C157.978 55.3726 156.48 55.603 155.174 56.2942Z" fill="white"/>
<path id="Vector_42" d="M155.52 56.9087C152.87 58.2527 151.066 61.2095 151.334 64.1663C151.68 68.0063 155.059 70.8863 158.899 70.5407C161.626 70.3103 163.93 68.5439 164.89 65.9711C166.31 62.0927 163.584 56.8703 159.398 56.2175C158.054 56.0639 156.71 56.2943 155.52 56.9087Z" fill="white"/>
<path id="Vector_43" d="M158.208 70.7713C157.901 70.7713 157.632 70.7713 157.325 70.7329C154.022 70.1953 151.488 67.5457 151.104 64.2049C150.835 61.2097 152.602 58.1377 155.405 56.7553C156.634 56.1409 158.054 55.9105 159.398 56.1025C161.357 56.4097 163.123 57.6769 164.275 59.6353C165.504 61.7089 165.773 64.1281 165.043 66.0865C163.93 68.8897 161.242 70.7329 158.208 70.7713ZM155.597 57.0625C152.947 58.4065 151.334 61.1713 151.526 64.1281C151.834 67.8913 155.136 70.6561 158.899 70.3489C161.549 70.1185 163.776 68.3905 164.698 65.9329C165.389 64.0513 165.12 61.7473 163.968 59.7889C162.893 57.9457 161.203 56.7169 159.36 56.4097C158.054 56.2561 156.749 56.4865 155.597 57.0625Z" fill="white"/>
<path id="Vector_44" d="M156.518 66.9694C155.52 66.4702 154.906 65.4334 154.944 64.3198C154.982 64.0126 155.251 63.7438 155.558 63.7822C155.866 63.8206 156.134 64.0894 156.096 64.3966C156.058 65.0494 156.595 65.6638 157.133 65.971C157.517 66.2014 158.016 66.3166 158.477 66.2014C158.861 66.1246 159.168 65.8174 159.245 65.4718C159.322 64.9342 158.784 64.435 158.477 64.1662C158.362 64.051 158.246 63.9742 158.093 63.859C157.555 63.5134 157.094 63.0526 156.749 62.5534C156.058 61.2862 156.557 59.7118 157.786 59.059C159.053 58.3678 160.627 58.867 161.28 60.0958C161.318 60.211 161.395 60.2878 161.434 60.403C161.549 60.7102 161.395 61.0174 161.088 61.1326C160.781 61.2478 160.474 61.0942 160.358 60.787C160.051 60.0574 159.206 59.6734 158.477 59.9806C157.747 60.2878 157.363 61.1326 157.67 61.8622C157.67 61.9006 157.709 61.939 157.709 61.9774C157.978 62.3614 158.323 62.707 158.707 62.9758C158.861 63.091 158.976 63.1678 159.13 63.283C160.013 64.0126 160.435 64.819 160.32 65.587C160.166 66.4318 159.552 67.123 158.707 67.315C157.978 67.507 157.21 67.3918 156.518 66.9694Z" fill="white"/>
<path id="Vector_45" d="M156.826 68.8509C156.595 68.7357 156.518 68.4669 156.557 68.2365C157.325 64.7805 158.285 61.4013 159.552 58.0989C159.706 57.8301 160.013 57.7149 160.32 57.8301C160.55 57.9453 160.704 58.2141 160.627 58.4829C159.398 61.7469 158.438 65.0493 157.709 68.4285C157.632 68.7357 157.325 68.9277 157.018 68.8893C156.941 68.8893 156.902 68.8893 156.826 68.8509Z" fill="white"/>
<path id="Vector_46" d="M168.499 64.5504C167.846 65.2416 167.578 66.24 167.77 67.1616C167.923 68.1984 168.614 69.1968 169.613 69.4656C170.496 69.6576 171.379 69.3504 171.994 68.6976C172.608 68.0448 172.877 67.1616 172.8 66.3168C172.57 64.2816 170.15 62.9376 168.499 64.5504Z" fill="white"/>
<path id="Vector_47" d="M143.578 58.2144C142.771 59.2896 142.81 61.0176 143.885 61.824C144.384 62.1696 144.998 62.3616 145.613 62.2848C146.88 62.2464 148.032 61.44 148.493 60.2496C149.606 56.8704 145.382 55.8336 143.578 58.2144Z" fill="white"/>
</g>
<g id="money-2">
<path id="Vector_48" d="M152.448 52.723C145.728 49.3822 138.586 46.2334 131.059 46.2718C129.638 46.2718 128.141 46.4254 126.989 47.3086C125.53 48.3838 125.03 50.3038 124.646 52.0318C123.379 57.7534 122.304 63.5134 121.459 69.3118C121.344 70.0414 121.267 70.8862 121.651 71.5006C122.227 72.3838 123.456 72.4222 124.493 72.4606C131.098 72.6142 137.472 74.7262 143.539 77.3374C149.606 79.9486 155.405 83.0974 161.549 85.555C163.2 86.2078 165.082 86.8222 166.694 86.0542C168.154 85.363 168.922 83.7118 169.536 82.2142C171.686 77.107 173.837 71.9998 175.949 66.8926C176.448 65.6638 176.986 64.3198 176.717 63.0142C176.371 61.5166 174.835 60.9022 173.453 60.787C171.802 60.6334 170.189 60.2878 168.614 59.827C165.043 58.7134 161.549 57.2926 158.208 55.603C156.288 54.6814 154.368 53.683 152.448 52.723Z" fill="#D8DB2F"/>
<path id="Vector_49" d="M159.091 82.5597C159.053 82.5597 159.014 82.5597 159.014 82.5213C150.528 77.7597 140.89 72.3837 130.522 71.4237C130.445 71.4237 130.406 71.3853 130.368 71.3085C129.254 68.8509 126.989 67.1229 124.301 66.7005C124.186 66.7005 124.109 66.5853 124.147 66.4701L127.142 52.7613C127.142 52.6845 127.258 52.6077 127.334 52.6077C129.293 52.6845 131.136 51.6861 132.173 49.9965C132.365 49.6893 132.518 49.3437 132.595 48.9597C132.595 48.8829 132.595 48.8061 132.595 48.6909C132.518 48.4605 132.557 48.2301 132.672 47.9997C133.018 47.6157 133.978 47.8077 134.976 48.0381C135.168 48.0765 135.322 48.1149 135.398 48.1533C137.549 48.5373 139.699 49.0365 141.773 49.6509C145.843 50.8797 149.798 52.5693 153.485 54.6813C154.522 55.2957 155.597 55.9485 156.595 56.5629C158.246 57.5613 159.936 58.6365 161.702 59.5197C165.005 61.2093 168 61.9773 170.726 61.8621C170.765 61.8621 170.842 61.8621 170.88 61.9005C170.918 61.9389 170.918 61.9773 170.918 62.0541C170.918 64.0125 171.994 65.8173 173.722 66.7389C173.798 66.7773 173.837 66.8925 173.798 66.9693C171.955 71.5773 169.843 76.0701 167.501 80.4477C167.462 80.4861 167.424 80.5245 167.386 80.5245C167.347 80.5245 167.27 80.5245 167.232 80.4861C164.851 78.7197 161.472 79.2573 159.706 81.6765C159.552 81.9069 159.398 82.1757 159.245 82.4061C159.206 82.4445 159.168 82.4829 159.13 82.4829C159.13 82.5597 159.13 82.5597 159.091 82.5597ZM130.675 71.0397C141.043 72.0381 150.605 77.3757 159.053 82.0989C160.589 79.2957 164.122 78.2973 166.925 79.8333C167.078 79.9101 167.194 79.9869 167.309 80.0637C169.613 75.8397 171.648 71.4621 173.414 66.9693C171.725 65.9709 170.65 64.2045 170.573 62.2077C167.808 62.2845 164.851 61.4781 161.549 59.8269C159.782 58.9437 158.093 57.8685 156.442 56.8701C155.443 56.2557 154.368 55.6029 153.331 54.9885C147.763 51.8013 141.658 49.6125 135.36 48.4989C135.245 48.4989 135.091 48.4221 134.899 48.3837C134.362 48.2685 133.171 47.9613 132.941 48.2301C132.902 48.3453 132.902 48.4989 132.941 48.6141C132.941 48.7293 132.941 48.8445 132.941 48.9597C132.864 49.3821 132.71 49.7661 132.48 50.1501C131.405 51.8781 129.523 52.9533 127.45 52.9533L124.531 66.2781C127.219 66.8157 129.485 68.5821 130.675 71.0397Z" fill="#133041"/>
<path id="Vector_50" d="M148.915 73.4206C148.454 73.4206 147.955 73.3822 147.494 73.267C143.885 72.4606 141.235 69.3502 141.043 65.6254C140.966 62.2846 143.117 59.0206 146.304 57.6766C147.725 57.0622 149.261 56.9086 150.758 57.1774C152.909 57.6382 154.79 59.1742 155.904 61.4398C157.094 63.8206 157.248 66.5086 156.326 68.659C155.136 71.539 152.026 73.4206 148.915 73.4206ZM149.338 57.6382C148.378 57.6382 147.418 57.8302 146.573 58.2142C143.616 59.4814 141.581 62.515 141.658 65.6254C141.734 69.7342 145.152 72.9598 149.222 72.883C152.102 72.8062 154.714 71.0782 155.866 68.4286C156.749 66.4318 156.595 63.9358 155.482 61.7086C154.406 59.635 152.678 58.1758 150.72 57.7534C150.259 57.6766 149.798 57.6382 149.338 57.6382Z" fill="#133041"/>
<path id="Vector_51" d="M146.765 58.5983C144.038 59.7503 142.08 62.6303 142.157 65.5871C142.234 69.4655 145.459 72.5375 149.338 72.4223C152.064 72.3455 154.522 70.7327 155.597 68.2367C157.248 64.4735 154.867 59.0591 150.72 58.1759C149.376 57.9071 147.994 58.0607 146.765 58.5983Z" fill="#D8DB2F"/>
<path id="Vector_52" d="M147.149 68.7359C146.189 68.1599 145.651 67.1231 145.728 66.0095C145.766 65.7023 146.074 65.4719 146.381 65.5103C146.688 65.5487 146.918 65.8559 146.88 66.1631C146.803 66.8159 147.264 67.4687 147.802 67.8143C148.186 68.0831 148.646 68.1983 149.107 68.1599C149.491 68.0831 149.798 67.8143 149.914 67.4687C149.99 66.9311 149.53 66.3935 149.222 66.1247L148.877 65.8175C148.378 65.4335 147.955 64.9727 147.648 64.3967C147.149 63.0527 147.802 61.5551 149.146 61.0559C150.49 60.5567 151.987 61.2095 152.486 62.5535C152.563 62.8607 152.41 63.1679 152.102 63.2447C151.795 63.3215 151.488 63.1679 151.411 62.8607C151.142 62.0927 150.336 61.6703 149.568 61.9391C148.8 62.2079 148.378 63.0143 148.646 63.7823C148.646 63.8207 148.685 63.8591 148.685 63.8975C148.915 64.3199 149.261 64.6655 149.645 64.9343L150.029 65.2799C150.874 66.0479 151.219 66.8543 151.066 67.6607C150.874 68.5055 150.182 69.1199 149.338 69.2735C148.608 69.3887 147.84 69.1967 147.187 68.7743L147.149 68.7359Z" fill="#133041"/>
<path id="Vector_53" d="M147.341 70.6175C147.149 70.4639 147.034 70.2335 147.11 70.0031C148.07 66.6239 149.261 63.2831 150.72 60.0959C150.835 59.8271 151.181 59.6735 151.488 59.7887C151.757 59.9039 151.91 60.2495 151.795 60.5567C150.374 63.7055 149.222 66.9695 148.262 70.3103C148.186 70.6175 147.878 70.7711 147.571 70.6943C147.456 70.6559 147.418 70.6559 147.341 70.6175Z" fill="#133041"/>
<path id="Vector_54" d="M160.704 72.3837C160.435 72.3837 160.205 72.3453 159.974 72.2685C158.822 71.8845 158.17 70.6557 158.093 69.6189C157.978 68.5821 158.323 67.5453 159.091 66.7773C159.859 66.0861 160.934 65.8941 161.894 66.3165C162.97 66.7773 163.699 67.8141 163.738 69.0045C163.776 69.9645 163.392 70.9245 162.701 71.5773C162.125 72.1149 161.434 72.3837 160.704 72.3837ZM159.437 67.2381C158.822 67.8525 158.515 68.6973 158.63 69.5805C158.707 70.4253 159.206 71.4237 160.128 71.7309C160.896 71.9229 161.702 71.7309 162.24 71.1933C162.816 70.6557 163.123 69.8877 163.085 69.0813C163.046 68.1213 162.47 67.2765 161.587 66.8925C160.896 66.5469 160.013 66.7005 159.437 67.2381Z" fill="#133041"/>
<path id="Vector_55" d="M136.55 63.6671C135.821 63.6671 135.168 63.4367 134.63 63.0143C134.131 62.5919 133.824 61.9391 133.785 61.2863C133.709 60.4415 133.977 59.6351 134.515 59.0207C135.59 57.7535 137.433 57.4463 138.893 58.2527C140.045 58.9439 140.352 60.2111 139.776 61.6319C139.2 62.8991 137.933 63.6671 136.55 63.6671ZM134.976 59.3663C134.553 59.9039 134.323 60.5567 134.4 61.2479C134.438 61.7471 134.669 62.2463 135.053 62.5919C135.475 62.9375 136.051 63.1295 136.589 63.0911C137.741 63.1295 138.816 62.4767 139.315 61.4015C139.776 60.2495 139.545 59.2511 138.662 58.7135C137.395 58.0223 135.859 58.3295 134.976 59.3663Z" fill="#133041"/>
</g>
<g id="dollar-coin-2">
<path id="Vector_56" d="M122.918 19.8914C119.117 22.0802 116.698 26.573 117.312 30.9122C117.965 35.5202 122.074 39.3986 126.682 39.7442C131.29 40.0898 135.974 36.941 137.395 32.525C139.2 26.7266 134.784 19.2386 128.563 18.6242C126.605 18.4706 124.608 18.9314 122.918 19.8914Z" fill="white"/>
<path id="Vector_57" d="M126.336 39.8977C126.067 39.8977 125.837 39.8977 125.568 39.8593C120.806 39.4753 116.582 35.4817 115.93 30.7585C115.315 26.3809 117.658 21.7345 121.651 19.4305C123.418 18.3937 125.453 17.9713 127.488 18.1249C130.368 18.4321 133.094 20.1601 134.938 22.9633C136.896 25.9201 137.51 29.4529 136.589 32.4097C135.206 36.7489 130.829 39.8977 126.336 39.8977ZM126.605 18.6625C124.954 18.6625 123.379 19.1233 121.958 19.9297C118.157 22.0801 115.93 26.4961 116.506 30.6817C117.12 35.1361 121.152 38.9377 125.645 39.2833C130.138 39.6289 134.707 36.5569 136.051 32.2561C136.934 29.4529 136.32 26.1121 134.477 23.2705C132.749 20.6209 130.176 18.9697 127.45 18.7009C127.142 18.7009 126.874 18.6625 126.605 18.6625Z" fill="white"/>
<path id="Vector_58" d="M126.413 38.8993C126.182 38.8993 125.952 38.8993 125.722 38.8609C121.382 38.5153 117.504 34.8673 116.89 30.5665C116.314 26.5729 118.464 22.3105 122.112 20.2369C123.725 19.3153 125.568 18.8929 127.45 19.0465C130.099 19.3153 132.557 20.9281 134.246 23.4625C136.013 26.1505 136.589 29.3761 135.744 32.1025C134.554 36.0193 130.522 38.8993 126.413 38.8993ZM122.304 20.5057L122.458 20.7745C119.002 22.7329 116.966 26.7265 117.504 30.5281C118.08 34.5985 121.728 38.0161 125.798 38.3617C129.869 38.7073 134.054 35.9041 135.245 31.9873C136.051 29.4529 135.514 26.3809 133.824 23.8465C132.25 21.4657 129.907 19.9297 127.45 19.6993C125.722 19.5457 123.955 19.9297 122.458 20.8129L122.304 20.5057Z" fill="white"/>
<path id="Vector_59" d="M124.377 33.9072C122.957 33.1776 122.073 31.8336 122.073 30.4896C122.073 30.0672 122.419 29.7216 122.841 29.7216C123.264 29.7216 123.571 30.0672 123.571 30.4896C123.571 31.3728 124.301 32.1792 125.069 32.5248C125.606 32.832 126.259 32.9088 126.873 32.7552C127.373 32.6016 127.757 32.2176 127.833 31.68C127.872 30.9888 127.142 30.336 126.681 29.9904C126.489 29.8752 126.336 29.76 126.144 29.6064C125.414 29.184 124.8 28.6464 124.301 27.9936C123.302 26.3424 123.801 24.2304 125.414 23.1936C127.065 22.1952 129.177 22.6944 130.214 24.3072C130.291 24.4608 130.368 24.6144 130.445 24.768C130.637 25.152 130.521 25.6128 130.137 25.8048C129.753 25.9968 129.293 25.8816 129.101 25.4976C129.062 25.4592 129.062 25.3824 129.024 25.344C128.525 24.3456 127.334 23.8848 126.297 24.3456C125.337 24.9216 124.992 26.1504 125.568 27.1488C125.952 27.648 126.451 28.0704 126.989 28.3776C127.181 28.4928 127.373 28.6464 127.565 28.7616C128.793 29.6448 129.408 30.6816 129.331 31.7952C129.216 32.9472 128.409 33.9072 127.296 34.2144C126.297 34.4832 125.261 34.368 124.377 33.8688V33.9072Z" fill="#133041"/>
<path id="Vector_60" d="M124.915 36.4032C124.608 36.2496 124.454 35.9424 124.493 35.5968C125.261 30.9504 126.336 26.3424 127.757 21.8496C127.834 21.4272 128.256 21.1584 128.64 21.2352C129.024 21.312 129.331 21.7344 129.254 22.1184C129.254 22.1952 129.216 22.2336 129.216 22.272C127.834 26.688 126.72 31.2192 125.99 35.8272C125.914 36.2496 125.53 36.5184 125.107 36.48C125.069 36.48 124.992 36.4416 124.915 36.4032Z" fill="#133041"/>
</g>
<g id="dollar-coin-3">
<path id="Vector_61" d="M22.7712 125.53C18.9696 127.68 16.5504 132.211 17.1648 136.55C17.8176 141.158 21.9264 145.037 26.5344 145.382C31.1424 145.728 35.8272 142.579 37.2096 138.163C39.0144 132.365 34.5984 124.877 28.3776 124.262C26.4576 124.109 24.4608 124.57 22.7712 125.53Z" fill="white"/>
<path id="Vector_62" d="M26.1888 145.536C25.92 145.536 25.6896 145.536 25.4208 145.497C20.6592 145.113 16.4352 141.12 15.744 136.397C15.1296 132.019 17.472 127.373 21.4656 125.069C23.232 124.032 25.2672 123.609 27.3024 123.763C30.1824 124.07 32.9088 125.798 34.752 128.601C36.7104 131.558 37.3248 135.091 36.4032 138.048C35.0976 142.349 30.6816 145.536 26.1888 145.536ZM21.8112 125.568C18.0096 127.718 15.744 132.134 16.3584 136.32C16.9728 140.774 21.0048 144.576 25.4976 144.921C29.9904 145.267 34.56 142.195 35.904 137.894C36.7872 135.091 36.1728 131.75 34.3296 128.909C32.6016 126.259 30.0288 124.608 27.3024 124.339C25.3824 124.185 23.4624 124.608 21.8112 125.568Z" fill="white"/>
<path id="Vector_63" d="M26.304 144.538C26.0736 144.538 25.8432 144.538 25.6128 144.499C21.2736 144.154 17.3952 140.506 16.7808 136.205C16.2048 132.211 18.3552 127.949 22.0032 125.875C23.616 124.954 25.4592 124.531 27.3408 124.685C29.9904 124.954 32.448 126.566 34.1376 129.101C35.904 131.789 36.48 135.014 35.6352 137.741C34.4064 141.658 30.4128 144.538 26.304 144.538ZM26.5344 125.222C25.0368 125.222 23.5776 125.645 22.3104 126.374C18.8544 128.333 16.8192 132.326 17.3568 136.128C17.9328 140.16 21.5808 143.616 25.6512 143.962C29.7216 144.307 33.8688 141.504 35.0976 137.587C35.904 135.053 35.3664 132.019 33.6768 129.446C32.1024 127.066 29.76 125.53 27.3024 125.299C27.0336 125.261 26.7648 125.222 26.5344 125.222Z" fill="white"/>
<path id="Vector_64" d="M24.2304 139.545C22.8096 138.816 21.9264 137.472 21.9264 136.128C21.9264 135.705 22.272 135.36 22.6944 135.36C23.1168 135.36 23.4624 135.705 23.4624 136.128C23.424 137.011 24.192 137.817 24.96 138.163C25.4976 138.47 26.1504 138.547 26.7648 138.393C27.264 138.24 27.648 137.856 27.7248 137.318C27.7632 136.627 27.0336 135.974 26.5728 135.628L26.0352 135.244C25.3056 134.822 24.6912 134.246 24.192 133.593C23.1936 131.98 23.6928 129.83 25.3056 128.793C26.9184 127.795 29.0688 128.294 30.1056 129.907C30.1824 130.06 30.2976 130.214 30.336 130.368C30.528 130.752 30.4128 131.212 30.0288 131.404C29.6448 131.596 29.184 131.481 28.992 131.097C28.9536 131.059 28.9536 130.982 28.9152 130.905C28.4544 129.945 27.3024 129.523 26.304 129.984C25.344 130.444 24.9216 131.596 25.3824 132.595C25.4208 132.633 25.4208 132.672 25.4592 132.71C25.8432 133.209 26.304 133.632 26.88 133.939C27.072 134.054 27.264 134.208 27.456 134.323C28.6848 135.206 29.2992 136.243 29.2224 137.356C29.1072 138.508 28.3008 139.468 27.1872 139.776C26.1888 140.16 25.152 140.044 24.2304 139.545Z" fill="#133041"/>
<path id="Vector_65" d="M24.8064 142.041C24.4992 141.888 24.3456 141.58 24.384 141.235C25.152 136.588 26.2272 131.98 27.648 127.449C27.7248 127.027 28.1088 126.758 28.5312 126.835C28.9536 126.912 29.2224 127.296 29.1456 127.718C29.1456 127.795 29.1072 127.833 29.0688 127.91C27.6864 132.326 26.6112 136.857 25.8432 141.465C25.7664 141.888 25.3824 142.156 24.96 142.08C24.9216 142.08 24.8448 142.08 24.8064 142.041Z" fill="#133041"/>
</g>
<g id="pen">
<path id="Vector_66" d="M22.0032 81.5614C31.2576 70.771 40.7808 59.7886 53.1456 52.7998C49.92 62.8222 44.2368 71.8846 37.5936 80.0254C30.9504 88.1662 23.3088 95.4238 15.6672 102.681C14.4768 103.795 12.3648 106.022 10.5216 105.254C9.06245 104.678 8.90885 102.605 9.06245 101.299C9.60005 96.7294 13.5936 92.0062 16.2816 88.4734C18.1248 86.0926 20.0448 83.827 22.0032 81.5614Z" fill="#D8DB2F"/>
<path id="Vector_67" d="M9.21605 103.257C9.52325 102.835 9.94565 102.489 10.4448 102.259C10.9824 102.029 11.5584 102.182 11.904 102.681C12.2496 103.257 11.8272 103.987 11.4048 104.525C10.7136 105.408 7.33445 110.861 6.41285 109.555C5.26085 107.942 8.37125 104.256 9.21605 103.257Z" fill="white"/>
<path id="Vector_68" d="M23.4624 99.6093C25.9584 97.0365 27.3792 93.6189 28.6464 90.2781C29.2224 88.7805 29.76 87.2445 30.6816 85.9389C31.6032 84.6333 32.9472 83.5581 34.56 83.3277C35.328 83.1741 36.096 83.4045 36.672 83.8653C37.2096 84.4029 37.3632 85.3629 36.8256 85.9005C36.288 86.4381 35.4816 86.3229 34.7904 86.4381C32.9856 86.7837 31.9104 88.5501 31.104 90.2013C29.4528 93.5805 28.1088 97.1133 25.8432 100.07C23.5776 103.027 20.1984 105.484 16.4736 105.446C13.824 105.408 13.0176 103.718 15.936 103.18C18.8928 102.604 21.2736 101.913 23.4624 99.6093Z" fill="white"/>
<path id="Vector_69" d="M48.768 63.4368C47.9232 68.928 44.1216 73.4592 40.4736 77.6832C39.5136 78.7968 38.4768 79.9488 37.0944 80.4096C34.9824 81.1008 32.7168 79.9488 30.912 78.6432C29.2992 77.4912 27.648 75.84 27.84 73.8816C27.9552 72.5376 28.9536 71.424 29.9136 70.464C33.1776 67.0464 36.5952 63.744 40.128 60.6336C41.9712 59.0208 42.3552 59.4048 43.968 60.9792C44.2752 61.2096 48.6528 64.0128 48.768 63.4368Z" fill="white"/>
<path id="Vector_70" d="M19.6225 98.9951C19.4689 99.8399 18.5857 100.493 17.7409 100.608C16.8577 100.685 15.9745 100.493 15.1681 100.109C13.5169 99.4175 12.0961 98.3039 11.0593 96.8447C10.6753 96.2303 10.2913 94.2335 11.6353 94.7711C12.4417 95.0783 13.2481 96.2303 13.9777 96.7295C14.4001 96.9599 19.5457 99.4943 19.6225 98.9951Z" fill="white"/>
</g>
</g>
</svg>
