<svg width="24" height="24" viewBox="0 0 24 24" fill="none" xmlns="http://www.w3.org/2000/svg">
<g id="ph:calculator-fill">
<path id="Vector" d="M18.75 2.25H5.25C4.85218 2.25 4.47064 2.40804 4.18934 2.68934C3.90804 2.97064 3.75 3.35218 3.75 3.75V20.25C3.75 20.6478 3.90804 21.0294 4.18934 21.3107C4.47064 21.592 4.85218 21.75 5.25 21.75H18.75C19.1478 21.75 19.5294 21.592 19.8107 21.3107C20.092 21.0294 20.25 20.6478 20.25 20.25V3.75C20.25 3.35218 20.092 2.97064 19.8107 2.68934C19.5294 2.40804 19.1478 2.25 18.75 2.25ZM8.25 18.75C8.0275 18.75 7.80999 18.684 7.62498 18.5604C7.43998 18.4368 7.29578 18.2611 7.21064 18.0555C7.12549 17.85 7.10321 17.6238 7.14662 17.4055C7.19002 17.1873 7.29717 16.9868 7.4545 16.8295C7.61184 16.6722 7.81229 16.565 8.03052 16.5216C8.24875 16.4782 8.47495 16.5005 8.68052 16.5856C8.88609 16.6708 9.06179 16.815 9.1854 17C9.30902 17.185 9.375 17.4025 9.375 17.625C9.375 17.9234 9.25647 18.2095 9.0455 18.4205C8.83452 18.6315 8.54837 18.75 8.25 18.75ZM8.25 15C8.0275 15 7.80999 14.934 7.62498 14.8104C7.43998 14.6868 7.29578 14.5111 7.21064 14.3055C7.12549 14.1 7.10321 13.8738 7.14662 13.6555C7.19002 13.4373 7.29717 13.2368 7.4545 13.0795C7.61184 12.9222 7.81229 12.815 8.03052 12.7716C8.24875 12.7282 8.47495 12.7505 8.68052 12.8356C8.88609 12.9208 9.06179 13.065 9.1854 13.25C9.30902 13.435 9.375 13.6525 9.375 13.875C9.375 14.1734 9.25647 14.4595 9.0455 14.6705C8.83452 14.8815 8.54837 15 8.25 15ZM12 18.75C11.7775 18.75 11.56 18.684 11.375 18.5604C11.19 18.4368 11.0458 18.2611 10.9606 18.0555C10.8755 17.85 10.8532 17.6238 10.8966 17.4055C10.94 17.1873 11.0472 16.9868 11.2045 16.8295C11.3618 16.6722 11.5623 16.565 11.7805 16.5216C11.9988 16.4782 12.225 16.5005 12.4305 16.5856C12.6361 16.6708 12.8118 16.815 12.9354 17C13.059 17.185 13.125 17.4025 13.125 17.625C13.125 17.9234 13.0065 18.2095 12.7955 18.4205C12.5845 18.6315 12.2984 18.75 12 18.75ZM12 15C11.7775 15 11.56 14.934 11.375 14.8104C11.19 14.6868 11.0458 14.5111 10.9606 14.3055C10.8755 14.1 10.8532 13.8738 10.8966 13.6555C10.94 13.4373 11.0472 13.2368 11.2045 13.0795C11.3618 12.9222 11.5623 12.815 11.7805 12.7716C11.9988 12.7282 12.225 12.7505 12.4305 12.8356C12.6361 12.9208 12.8118 13.065 12.9354 13.25C13.059 13.435 13.125 13.6525 13.125 13.875C13.125 14.1734 13.0065 14.4595 12.7955 14.6705C12.5845 14.8815 12.2984 15 12 15ZM15.75 18.75C15.5275 18.75 15.31 18.684 15.125 18.5604C14.94 18.4368 14.7958 18.2611 14.7106 18.0555C14.6255 17.85 14.6032 17.6238 14.6466 17.4055C14.69 17.1873 14.7972 16.9868 14.9545 16.8295C15.1118 16.6722 15.3123 16.565 15.5305 16.5216C15.7488 16.4782 15.975 16.5005 16.1805 16.5856C16.3861 16.6708 16.5618 16.815 16.6854 17C16.809 17.185 16.875 17.4025 16.875 17.625C16.875 17.9234 16.7565 18.2095 16.5455 18.4205C16.3345 18.6315 16.0484 18.75 15.75 18.75ZM15.75 15C15.5275 15 15.31 14.934 15.125 14.8104C14.94 14.6868 14.7958 14.5111 14.7106 14.3055C14.6255 14.1 14.6032 13.8738 14.6466 13.6555C14.69 13.4373 14.7972 13.2368 14.9545 13.0795C15.1118 12.9222 15.3123 12.815 15.5305 12.7716C15.7488 12.7282 15.975 12.7505 16.1805 12.8356C16.3861 12.9208 16.5618 13.065 16.6854 13.25C16.809 13.435 16.875 13.6525 16.875 13.875C16.875 14.1734 16.7565 14.4595 16.5455 14.6705C16.3345 14.8815 16.0484 15 15.75 15ZM17.25 9.75C17.25 9.94891 17.171 10.1397 17.0303 10.2803C16.8897 10.421 16.6989 10.5 16.5 10.5H7.5C7.30109 10.5 7.11032 10.421 6.96967 10.2803C6.82902 10.1397 6.75 9.94891 6.75 9.75V6C6.75 5.80109 6.82902 5.61032 6.96967 5.46967C7.11032 5.32902 7.30109 5.25 7.5 5.25H16.5C16.6989 5.25 16.8897 5.32902 17.0303 5.46967C17.171 5.61032 17.25 5.80109 17.25 6V9.75Z" fill="#133041"/>
</g>
</svg>
